<svg width="20" height="21" viewBox="0 0 20 21" fill="none" xmlns="http://www.w3.org/2000/svg">
<path d="M5.63217 18.8336H14.3655C16.6655 18.8336 17.5822 17.4253 17.6905 15.7086L18.1238 8.82532C18.2405 7.02532 16.8072 5.50032 14.9988 5.50032C14.4905 5.50032 14.0238 5.20865 13.7905 4.75865L13.1905 3.55032C12.8072 2.79199 11.8072 2.16699 10.9572 2.16699H9.04884C8.1905 2.16699 7.1905 2.79199 6.80717 3.55032L6.20717 4.75865C5.97384 5.20865 5.50717 5.50032 4.99884 5.50032C3.1905 5.50032 1.75717 7.02532 1.87384 8.82532L2.30717 15.7086C2.40717 17.4253 3.33217 18.8336 5.63217 18.8336Z" stroke="#553236" stroke-width="1.5" stroke-linecap="round" stroke-linejoin="round"/>
<path d="M8.75 7.16699H11.25" stroke="#553236" stroke-width="1.5" stroke-linecap="round" stroke-linejoin="round"/>
<path d="M10.6581 15.4174C12.1047 15.0535 12.9878 13.5769 12.6239 12.1303C12.26 10.6836 10.7834 9.80059 9.33672 10.1645C7.89012 10.5284 7.007 12.005 7.3709 13.4517C7.7348 14.8983 9.21151 15.7813 10.6581 15.4174Z" stroke="#553236" stroke-width="1.5" stroke-linecap="round" stroke-linejoin="round"/>
</svg>
