<svg width="238" height="64" viewBox="0 0 238 64" fill="none" xmlns="http://www.w3.org/2000/svg">
<path d="M11.0087 58H9.86027V50.3984H9.81242L6.66789 57.9316H5.62883L2.4843 50.3984H2.43645V58H1.28801V48.1357H2.71672L6.12102 56.3662H6.1757L9.58 48.1357H11.0087V58ZM13.4661 60.6592C13.2565 60.6592 13.0856 60.6455 12.9534 60.6182V59.6201C13.0628 59.6429 13.2177 59.6543 13.4182 59.6543C13.7509 59.6543 14.0175 59.5654 14.218 59.3877C14.4186 59.2145 14.5872 58.9206 14.7239 58.5059L14.888 58.0068L12.263 50.8906H13.5345L15.5032 56.8105H15.5237L17.4925 50.8906H18.7434L15.9475 58.499C15.6422 59.3285 15.3118 59.8958 14.9563 60.2012C14.6054 60.5065 14.1087 60.6592 13.4661 60.6592ZM27.083 58.1641C25.7204 58.1641 24.638 57.7061 23.8359 56.79C23.0384 55.8695 22.6396 54.6276 22.6396 53.0645C22.6396 51.515 23.043 50.2799 23.8496 49.3594C24.6562 48.4342 25.734 47.9717 27.083 47.9717C28.1585 47.9717 29.07 48.2725 29.8174 48.874C30.5693 49.471 31.0228 50.2617 31.1777 51.2461H29.9336C29.7741 50.599 29.4346 50.0817 28.915 49.6943C28.3955 49.3024 27.7848 49.1064 27.083 49.1064C26.1214 49.1064 25.3512 49.4665 24.7725 50.1865C24.1937 50.9066 23.9043 51.8659 23.9043 53.0645C23.9043 54.2767 24.1914 55.2406 24.7656 55.9561C25.3398 56.6715 26.1146 57.0293 27.0898 57.0293C27.8145 57.0293 28.4251 56.863 28.9219 56.5303C29.4186 56.1976 29.7559 55.7305 29.9336 55.1289H31.1777C30.9499 56.1042 30.4827 56.8538 29.7764 57.3779C29.07 57.902 28.1722 58.1641 27.083 58.1641ZM34.9339 57.1113C35.4945 57.1113 35.9639 56.9382 36.3421 56.5918C36.725 56.2409 36.9164 55.8102 36.9164 55.2998V54.7188L35.016 54.835C34.5375 54.8669 34.166 54.9831 33.9017 55.1836C33.642 55.3841 33.5121 55.653 33.5121 55.9902C33.5121 56.3275 33.642 56.5986 33.9017 56.8037C34.1615 57.0088 34.5056 57.1113 34.9339 57.1113ZM34.6673 58.123C33.961 58.123 33.389 57.9271 32.9515 57.5352C32.5186 57.1432 32.3021 56.6283 32.3021 55.9902C32.3021 55.3796 32.5254 54.8919 32.972 54.5273C33.4232 54.1628 34.0589 53.9577 34.8793 53.9121L36.9164 53.7959V53.2012C36.9164 52.7682 36.7796 52.4287 36.5062 52.1826C36.2328 51.9365 35.85 51.8135 35.3578 51.8135C34.9066 51.8135 34.5397 51.9137 34.2572 52.1143C33.9746 52.3102 33.7946 52.5859 33.7171 52.9414H32.5687C32.6097 52.3079 32.8832 51.7884 33.389 51.3828C33.8994 50.9727 34.5648 50.7676 35.3851 50.7676C36.2191 50.7676 36.8799 50.9772 37.3675 51.3965C37.8597 51.8158 38.1058 52.3786 38.1058 53.085V58H36.9779V56.7764H36.9505C36.7364 57.182 36.4219 57.5078 36.0072 57.7539C35.5925 58 35.1459 58.123 34.6673 58.123ZM39.7566 58V50.8906H40.8777V52.0527H40.905C41.0235 51.6562 41.2354 51.3441 41.5407 51.1162C41.8506 50.8838 42.2129 50.7676 42.6277 50.7676C42.7234 50.7676 42.8829 50.7835 43.1062 50.8154V51.9707C42.9786 51.9251 42.7667 51.9023 42.4704 51.9023C42.0101 51.9023 41.641 52.055 41.363 52.3604C41.085 52.6657 40.946 53.069 40.946 53.5703V58H39.7566ZM44.5997 49.1748H45.7891V50.8906H47.17V51.8682H45.7891V56.0928C45.7891 56.4163 45.8598 56.6556 46.0011 56.8105C46.1423 56.9609 46.3656 57.0361 46.671 57.0361C46.8624 57.0361 47.0264 57.0247 47.1632 57.002V58C47.0082 58.0365 46.7576 58.0547 46.4112 58.0547C45.7595 58.0547 45.2947 57.9089 45.0167 57.6172C44.7387 57.3255 44.5997 56.8379 44.5997 56.1543V51.8682H43.5401V50.8906H44.5997V49.1748Z" fill="black"/>
<rect x="5" width="38" height="38" rx="19" fill="#F0EEEE"/>
<path d="M31.5016 16.2149C30.8702 15.5366 29.9183 15.1425 28.599 15.005V14.3085C28.599 13.0528 28.0524 11.8429 27.0911 10.9997C26.1205 10.1381 24.8577 9.73482 23.5477 9.85397C21.2954 10.0648 19.4012 12.182 19.4012 14.4734V15.005C18.0818 15.1425 17.13 15.5366 16.4986 16.2149C15.5845 17.2048 15.6128 18.5246 15.7164 19.4412L16.3761 24.5464C16.574 26.3337 17.3185 28.1668 21.3708 28.1668H26.6294C30.6817 28.1668 31.4262 26.3337 31.6241 24.5556L32.2837 19.432C32.3874 18.5246 32.4063 17.2048 31.5016 16.2149ZM23.6797 11.128C24.6221 11.0455 25.5173 11.3296 26.2147 11.9437C26.9027 12.5487 27.2891 13.4102 27.2891 14.3085V14.95H20.7111V14.4734C20.7111 12.842 22.0964 11.2746 23.6797 11.128ZM20.6263 20.0553H20.6169C20.0986 20.0553 19.6745 19.6428 19.6745 19.1387C19.6745 18.6346 20.0986 18.2222 20.6169 18.2222C21.1446 18.2222 21.5687 18.6346 21.5687 19.1387C21.5687 19.6428 21.1446 20.0553 20.6263 20.0553ZM27.2231 20.0553H27.2137C26.6953 20.0553 26.2713 19.6428 26.2713 19.1387C26.2713 18.6346 26.6953 18.2222 27.2137 18.2222C27.7414 18.2222 28.1655 18.6346 28.1655 19.1387C28.1655 19.6428 27.7414 20.0553 27.2231 20.0553Z" fill="#553236"/>
<path d="M186.361 48.1357H189.882C190.807 48.1357 191.563 48.432 192.151 49.0244C192.744 49.6123 193.04 50.3711 193.04 51.3008C193.04 52.235 192.744 52.9984 192.151 53.5908C191.559 54.1833 190.798 54.4795 189.868 54.4795H187.592V58H186.361V48.1357ZM187.592 49.2295V53.3857H189.56C190.262 53.3857 190.807 53.2035 191.194 52.8389C191.582 52.4697 191.775 51.957 191.775 51.3008C191.775 50.6445 191.582 50.1364 191.194 49.7764C190.811 49.4118 190.267 49.2295 189.56 49.2295H187.592ZM196.14 57.1113C196.7 57.1113 197.17 56.9382 197.548 56.5918C197.931 56.2409 198.122 55.8102 198.122 55.2998V54.7188L196.222 54.835C195.743 54.8669 195.372 54.9831 195.108 55.1836C194.848 55.3841 194.718 55.653 194.718 55.9902C194.718 56.3275 194.848 56.5986 195.108 56.8037C195.367 57.0088 195.712 57.1113 196.14 57.1113ZM195.873 58.123C195.167 58.123 194.595 57.9271 194.157 57.5352C193.725 57.1432 193.508 56.6283 193.508 55.9902C193.508 55.3796 193.731 54.8919 194.178 54.5273C194.629 54.1628 195.265 53.9577 196.085 53.9121L198.122 53.7959V53.2012C198.122 52.7682 197.986 52.4287 197.712 52.1826C197.439 51.9365 197.056 51.8135 196.564 51.8135C196.113 51.8135 195.746 51.9137 195.463 52.1143C195.181 52.3102 195.001 52.5859 194.923 52.9414H193.775C193.816 52.3079 194.089 51.7884 194.595 51.3828C195.105 50.9727 195.771 50.7676 196.591 50.7676C197.425 50.7676 198.086 50.9772 198.574 51.3965C199.066 51.8158 199.312 52.3786 199.312 53.085V58H198.184V56.7764H198.157C197.942 57.182 197.628 57.5078 197.213 57.7539C196.798 58 196.352 58.123 195.873 58.123ZM201.55 60.6592C201.341 60.6592 201.17 60.6455 201.038 60.6182V59.6201C201.147 59.6429 201.302 59.6543 201.503 59.6543C201.835 59.6543 202.102 59.5654 202.302 59.3877C202.503 59.2145 202.672 58.9206 202.808 58.5059L202.972 58.0068L200.347 50.8906H201.619L203.588 56.8105H203.608L205.577 50.8906H206.828L204.032 58.499C203.727 59.3285 203.396 59.8958 203.041 60.2012C202.69 60.5065 202.193 60.6592 201.55 60.6592ZM207.911 58V50.8906H209.032V52.0254H209.06C209.233 51.638 209.495 51.3327 209.846 51.1094C210.197 50.8815 210.607 50.7676 211.076 50.7676C211.559 50.7676 211.974 50.8861 212.32 51.123C212.667 51.3555 212.917 51.6882 213.072 52.1211H213.1C213.296 51.6973 213.59 51.3669 213.981 51.1299C214.378 50.8883 214.827 50.7676 215.328 50.7676C216.03 50.7676 216.59 50.9795 217.01 51.4033C217.434 51.8226 217.646 52.3854 217.646 53.0918V58H216.456V53.3652C216.456 52.8776 216.326 52.4993 216.066 52.2305C215.811 51.957 215.449 51.8203 214.979 51.8203C214.51 51.8203 214.125 51.9775 213.824 52.292C213.523 52.6019 213.373 52.9984 213.373 53.4814V58H212.184V53.2354C212.184 52.807 212.051 52.4652 211.787 52.21C211.523 51.9502 211.17 51.8203 210.728 51.8203C210.258 51.8203 209.868 51.9844 209.559 52.3125C209.253 52.6406 209.101 53.0508 209.101 53.543V58H207.911ZM222.154 51.7998C221.602 51.7998 221.144 51.9912 220.78 52.374C220.42 52.7523 220.221 53.2399 220.185 53.8369H224.047C224.034 53.2354 223.854 52.7454 223.507 52.3672C223.161 51.9889 222.71 51.7998 222.154 51.7998ZM224.02 55.9629H225.189C225.084 56.5918 224.756 57.109 224.204 57.5146C223.658 57.9202 222.999 58.123 222.229 58.123C221.213 58.123 220.413 57.7949 219.829 57.1387C219.246 56.4824 218.954 55.5938 218.954 54.4727C218.954 53.3607 219.246 52.4652 219.829 51.7861C220.417 51.1071 221.199 50.7676 222.174 50.7676C223.131 50.7676 223.888 51.0889 224.444 51.7314C225 52.374 225.278 53.2354 225.278 54.3154V54.7666H220.178V54.835C220.178 55.5186 220.365 56.0654 220.739 56.4756C221.112 56.8857 221.618 57.0908 222.256 57.0908C222.703 57.0908 223.083 56.9883 223.398 56.7832C223.712 56.5781 223.92 56.3047 224.02 55.9629ZM226.621 58V50.8906H227.742V52.0254H227.769C227.974 51.6289 228.268 51.3213 228.651 51.1025C229.034 50.8792 229.492 50.7676 230.025 50.7676C230.8 50.7676 231.404 51.0023 231.837 51.4717C232.27 51.9365 232.486 52.5745 232.486 53.3857V58H231.297V53.5977C231.297 53.0189 231.16 52.5791 230.886 52.2783C230.613 51.973 230.205 51.8203 229.663 51.8203C229.102 51.8203 228.653 52.0026 228.316 52.3672C227.979 52.7318 227.81 53.2148 227.81 53.8164V58H226.621ZM234.526 49.1748H235.716V50.8906H237.097V51.8682H235.716V56.0928C235.716 56.4163 235.787 56.6556 235.928 56.8105C236.069 56.9609 236.292 57.0361 236.598 57.0361C236.789 57.0361 236.953 57.0247 237.09 57.002V58C236.935 58.0365 236.684 58.0547 236.338 58.0547C235.686 58.0547 235.221 57.9089 234.943 57.6172C234.665 57.3255 234.526 56.8379 234.526 56.1543V51.8682H233.467V50.8906H234.526V49.1748Z" fill="black"/>
<rect x="192" width="38" height="38" rx="19" fill="#F0EEEE"/>
<path d="M219.333 15.2918C219.333 15.8418 218.883 16.2918 218.333 16.2918H203.666C203.116 16.2918 202.666 15.8418 202.666 15.2918V15.2835C202.666 13.3752 204.208 11.8335 206.116 11.8335H215.874C217.783 11.8335 219.333 13.3835 219.333 15.2918Z" fill="#553236"/>
<path d="M202.666 18.5415V22.7165C202.666 24.6248 204.208 26.1665 206.116 26.1665H215.874C217.783 26.1665 219.333 24.6165 219.333 22.7082V18.5415C219.333 17.9915 218.883 17.5415 218.333 17.5415H203.666C203.116 17.5415 202.666 17.9915 202.666 18.5415ZM207.666 23.3748H205.999C205.658 23.3748 205.374 23.0915 205.374 22.7498C205.374 22.4082 205.658 22.1248 205.999 22.1248H207.666C208.008 22.1248 208.291 22.4082 208.291 22.7498C208.291 23.0915 208.008 23.3748 207.666 23.3748ZM213.083 23.3748H209.749C209.408 23.3748 209.124 23.0915 209.124 22.7498C209.124 22.4082 209.408 22.1248 209.749 22.1248H213.083C213.424 22.1248 213.708 22.4082 213.708 22.7498C213.708 23.0915 213.424 23.3748 213.083 23.3748Z" fill="#553236"/>
<line x1="40" y1="18.7" x2="195" y2="18.7" stroke="#553236" stroke-width="0.6" stroke-dasharray="4 4"/>
</svg>
