<svg width="130" height="130" viewBox="0 0 130 130" fill="none" xmlns="http://www.w3.org/2000/svg">
<path opacity="0.977" fill-rule="evenodd" clip-rule="evenodd" d="M63.3499 17.393C70.5933 17.2678 75.2906 20.6532 77.4417 27.5492C78.356 35.7601 74.8435 40.8803 66.9046 42.9106C59.2579 43.5512 54.3913 40.208 52.305 32.8813C51.5105 24.472 55.1921 19.3092 63.3499 17.393Z" fill="white"/>
<path opacity="0.988" fill-rule="evenodd" clip-rule="evenodd" d="M84.9311 27.041C93.4058 29.594 98.3993 35.2648 99.9116 44.0527C110.072 48.0017 114.854 55.4498 114.257 66.3965C112.677 75.593 107.388 81.3904 98.3882 83.7891C90.9584 85.2612 84.5685 83.3569 79.2182 78.0762C72.9221 84.0859 65.601 85.7363 57.2553 83.0273C54.6543 81.9058 52.2846 80.4248 50.146 78.584C42.9437 84.7333 34.9878 85.8759 26.2788 82.0117C18.3595 77.3038 14.7625 70.3214 15.4878 61.0645C17.045 52.1902 22.1232 46.4349 30.7221 43.7988C32.1179 35.5862 36.7303 30.0848 44.56 27.2949C44.1106 37.7058 48.5961 45.027 58.0171 49.2578C68.2401 52.162 76.3227 49.2421 82.2651 40.498C84.6013 36.3071 85.49 31.8216 84.9311 27.041Z" fill="white"/>
<path opacity="0.964" fill-rule="evenodd" clip-rule="evenodd" d="M75.5371 129.873C73.1674 129.873 70.7974 129.873 68.4277 129.873C68.4277 117.008 68.4277 104.144 68.4277 91.2793C72.3026 90.7918 75.8997 89.5223 79.2188 87.4707C80.8991 88.4168 82.6343 89.263 84.4238 90.0098C84.5084 90.2213 84.5932 90.433 84.6777 90.6445C81.6141 103.721 78.5672 116.797 75.5371 129.873Z" fill="white"/>
<path opacity="0.979" fill-rule="evenodd" clip-rule="evenodd" d="M61.0645 129.873C58.7793 129.873 56.4941 129.873 54.209 129.873C51.1629 116.842 48.116 103.809 45.0684 90.7715C45.1529 90.5176 45.2377 90.2637 45.3223 90.0098C46.9879 89.2828 48.6383 88.5211 50.2734 87.7246C53.5968 89.6401 57.1515 90.9096 60.9375 91.5332C61.0645 104.313 61.1069 117.093 61.0645 129.873Z" fill="white"/>
<path opacity="0.967" fill-rule="evenodd" clip-rule="evenodd" d="M47.0996 129.873C46.3379 129.873 45.5762 129.873 44.8145 129.873C37.5913 128.448 33.148 124.131 31.4844 116.924C29.2508 108.615 26.9656 100.321 24.6289 92.041C24.2926 91.0391 24.1234 90.0235 24.1211 88.9941C28.4215 90.9738 32.9494 91.9047 37.7051 91.7871C40.5351 103.276 43.2857 114.787 45.957 126.318C46.185 127.575 46.5659 128.76 47.0996 129.873Z" fill="white"/>
<path opacity="0.966" fill-rule="evenodd" clip-rule="evenodd" d="M84.9316 129.873C84.1699 129.873 83.4082 129.873 82.6465 129.873C83.3021 128.529 83.7675 127.09 84.043 125.557C86.6696 114.288 89.3356 103.032 92.041 91.7871C96.7967 91.9004 101.325 90.9695 105.625 88.9941C105.623 90.0235 105.453 91.0391 105.117 92.041C102.623 100.917 100.169 109.803 97.7539 118.701C96.3602 123.481 93.3557 126.824 88.7402 128.73C87.4512 129.157 86.1816 129.538 84.9316 129.873Z" fill="white"/>
</svg>
