<svg width="14" height="14" viewBox="0 0 14 14" fill="none" xmlns="http://www.w3.org/2000/svg">
<path d="M6.55915 2.43487C6.69417 2.04642 6.76168 1.8522 6.86152 1.79837C6.94792 1.75178 7.05196 1.75178 7.13837 1.79837C7.2382 1.8522 7.30571 2.04642 7.44074 2.43487L8.3334 5.00294C8.37183 5.11349 8.39104 5.16877 8.42567 5.20994C8.45625 5.2463 8.49526 5.27465 8.5393 5.2925C8.58915 5.31271 8.64766 5.3139 8.76468 5.31628L11.4829 5.37168C11.8941 5.38006 12.0996 5.38425 12.1817 5.46256C12.2527 5.53034 12.2849 5.62929 12.2672 5.72586C12.2469 5.83744 12.083 5.96167 11.7553 6.21012L9.5888 7.85266C9.49553 7.92338 9.4489 7.95873 9.42044 8.00439C9.39531 8.04471 9.38041 8.09057 9.37704 8.13797C9.37323 8.19163 9.39017 8.24764 9.42407 8.35967L10.2114 10.962C10.3304 11.3556 10.39 11.5524 10.3409 11.6546C10.2983 11.7431 10.2142 11.8043 10.1169 11.8174C10.0045 11.8325 9.8357 11.7151 9.49814 11.4802L7.26649 9.92724C7.17042 9.86039 7.12238 9.82696 7.07017 9.81401C7.02405 9.80257 6.97583 9.80257 6.92971 9.81401C6.8775 9.82696 6.82947 9.86039 6.73339 9.92724L4.50175 11.4802C4.16418 11.7151 3.9954 11.8325 3.88299 11.8174C3.78571 11.8043 3.70154 11.7431 3.65902 11.6546C3.60989 11.5524 3.66944 11.3556 3.78852 10.962L4.57582 8.35967C4.60971 8.24764 4.62666 8.19163 4.62284 8.13797C4.61947 8.09057 4.60457 8.04471 4.57944 8.00439C4.55099 7.95873 4.50435 7.92338 4.41108 7.85266L2.24456 6.21012C1.91684 5.96167 1.75298 5.83744 1.73264 5.72586C1.71503 5.62929 1.74718 5.53034 1.81819 5.46256C1.90024 5.38425 2.10582 5.38006 2.51698 5.37168L5.2352 5.31628C5.35222 5.3139 5.41073 5.31271 5.46058 5.2925C5.50462 5.27465 5.54363 5.2463 5.57422 5.20994C5.60884 5.16877 5.62806 5.11349 5.66649 5.00294L6.55915 2.43487Z" fill="#E6E6E6"/>
</svg>
