<svg width="236" height="64" viewBox="0 0 236 64" fill="none" xmlns="http://www.w3.org/2000/svg">
<path d="M10.8075 58H9.6591V50.3984H9.61125L6.46672 57.9316H5.42766L2.28312 50.3984H2.23527V58H1.08684V48.1357H2.51555L5.91984 56.3662H5.97453L9.37883 48.1357H10.8075V58ZM13.2649 60.6592C13.0553 60.6592 12.8844 60.6455 12.7522 60.6182V59.6201C12.8616 59.6429 13.0165 59.6543 13.2171 59.6543C13.5498 59.6543 13.8164 59.5654 14.0169 59.3877C14.2174 59.2145 14.386 58.9206 14.5227 58.5059L14.6868 58.0068L12.0618 50.8906H13.3333L15.302 56.8105H15.3225L17.2913 50.8906H18.5423L15.7464 58.499C15.441 59.3285 15.1106 59.8958 14.7552 60.2012C14.4042 60.5065 13.9075 60.6592 13.2649 60.6592ZM28.543 53.2217H27.3809C27.2897 52.8115 27.0869 52.4743 26.7725 52.21C26.4626 51.9456 26.0592 51.8135 25.5625 51.8135C24.9427 51.8135 24.4437 52.0527 24.0654 52.5312C23.6872 53.0052 23.498 53.6432 23.498 54.4453C23.498 55.2611 23.6872 55.9036 24.0654 56.373C24.4482 56.8424 24.9518 57.0771 25.5762 57.0771C26.0547 57.0771 26.4489 56.9587 26.7588 56.7217C27.0732 56.4801 27.2829 56.1429 27.3877 55.71H28.5566C28.4655 56.4209 28.1442 57.002 27.5928 57.4531C27.0459 57.8997 26.3714 58.123 25.5693 58.123C24.5758 58.123 23.7806 57.7949 23.1836 57.1387C22.5866 56.4779 22.2881 55.5801 22.2881 54.4453C22.2881 53.3288 22.5866 52.4378 23.1836 51.7725C23.7806 51.1025 24.5713 50.7676 25.5557 50.7676C26.4033 50.7676 27.0915 51.0068 27.6201 51.4854C28.1533 51.9639 28.4609 52.5426 28.543 53.2217ZM32.1351 57.1113C32.6957 57.1113 33.1651 56.9382 33.5433 56.5918C33.9261 56.2409 34.1175 55.8102 34.1175 55.2998V54.7188L32.2171 54.835C31.7386 54.8669 31.3672 54.9831 31.1029 55.1836C30.8431 55.3841 30.7132 55.653 30.7132 55.9902C30.7132 56.3275 30.8431 56.5986 31.1029 56.8037C31.3627 57.0088 31.7067 57.1113 32.1351 57.1113ZM31.8685 58.123C31.1621 58.123 30.5902 57.9271 30.1527 57.5352C29.7198 57.1432 29.5033 56.6283 29.5033 55.9902C29.5033 55.3796 29.7266 54.8919 30.1732 54.5273C30.6244 54.1628 31.2601 53.9577 32.0804 53.9121L34.1175 53.7959V53.2012C34.1175 52.7682 33.9808 52.4287 33.7074 52.1826C33.4339 51.9365 33.0511 51.8135 32.5589 51.8135C32.1078 51.8135 31.7409 51.9137 31.4584 52.1143C31.1758 52.3102 30.9958 52.5859 30.9183 52.9414H29.7699C29.8109 52.3079 30.0843 51.7884 30.5902 51.3828C31.1006 50.9727 31.766 50.7676 32.5863 50.7676C33.4203 50.7676 34.0811 50.9772 34.5687 51.3965C35.0609 51.8158 35.307 52.3786 35.307 53.085V58H34.1791V56.7764H34.1517C33.9375 57.182 33.6231 57.5078 33.2084 57.7539C32.7936 58 32.347 58.123 31.8685 58.123ZM36.9577 58V50.8906H38.0788V52.0527H38.1062C38.2247 51.6562 38.4366 51.3441 38.7419 51.1162C39.0518 50.8838 39.4141 50.7676 39.8288 50.7676C39.9245 50.7676 40.084 50.7835 40.3073 50.8154V51.9707C40.1797 51.9251 39.9678 51.9023 39.6716 51.9023C39.2113 51.9023 38.8422 52.055 38.5642 52.3604C38.2862 52.6657 38.1472 53.069 38.1472 53.5703V58H36.9577ZM41.8009 49.1748H42.9903V50.8906H44.3712V51.8682H42.9903V56.0928C42.9903 56.4163 43.0609 56.6556 43.2022 56.8105C43.3435 56.9609 43.5668 57.0361 43.8721 57.0361C44.0636 57.0361 44.2276 57.0247 44.3643 57.002V58C44.2094 58.0365 43.9587 58.0547 43.6124 58.0547C42.9607 58.0547 42.4958 57.9089 42.2178 57.6172C41.9399 57.3255 41.8009 56.8379 41.8009 56.1543V51.8682H40.7413V50.8906H41.8009V49.1748Z" fill="black"/>
<rect x="3" width="38" height="38" rx="19" fill="#F0EEEE"/>
<path d="M29.5016 16.2149C28.8702 15.5366 27.9183 15.1425 26.599 15.005V14.3085C26.599 13.0528 26.0524 11.8429 25.0911 10.9997C24.1205 10.1381 22.8577 9.73482 21.5477 9.85397C19.2954 10.0648 17.4012 12.182 17.4012 14.4734V15.005C16.0818 15.1425 15.13 15.5366 14.4986 16.2149C13.5845 17.2048 13.6128 18.5246 13.7164 19.4412L14.3761 24.5464C14.574 26.3337 15.3185 28.1668 19.3708 28.1668H24.6294C28.6817 28.1668 29.4262 26.3337 29.6241 24.5556L30.2837 19.432C30.3874 18.5246 30.4063 17.2048 29.5016 16.2149ZM21.6797 11.128C22.6221 11.0455 23.5173 11.3296 24.2147 11.9437C24.9027 12.5487 25.289 13.4102 25.289 14.3085V14.95H18.7111V14.4734C18.7111 12.842 20.0964 11.2746 21.6797 11.128ZM18.6263 20.0553H18.6169C18.0986 20.0553 17.6745 19.6428 17.6745 19.1387C17.6745 18.6346 18.0986 18.2222 18.6169 18.2222C19.1446 18.2222 19.5687 18.6346 19.5687 19.1387C19.5687 19.6428 19.1446 20.0553 18.6263 20.0553ZM25.2231 20.0553H25.2137C24.6953 20.0553 24.2713 19.6428 24.2713 19.1387C24.2713 18.6346 24.6953 18.2222 25.2137 18.2222C25.7414 18.2222 26.1655 18.6346 26.1655 19.1387C26.1655 19.6428 25.7414 20.0553 25.2231 20.0553Z" fill="#553236"/>
<path d="M184.361 48.1357H187.882C188.807 48.1357 189.563 48.432 190.151 49.0244C190.744 49.6123 191.04 50.3711 191.04 51.3008C191.04 52.235 190.744 52.9984 190.151 53.5908C189.559 54.1833 188.798 54.4795 187.868 54.4795H185.592V58H184.361V48.1357ZM185.592 49.2295V53.3857H187.56C188.262 53.3857 188.807 53.2035 189.194 52.8389C189.582 52.4697 189.775 51.957 189.775 51.3008C189.775 50.6445 189.582 50.1364 189.194 49.7764C188.811 49.4118 188.267 49.2295 187.56 49.2295H185.592ZM194.14 57.1113C194.7 57.1113 195.17 56.9382 195.548 56.5918C195.931 56.2409 196.122 55.8102 196.122 55.2998V54.7188L194.222 54.835C193.743 54.8669 193.372 54.9831 193.108 55.1836C192.848 55.3841 192.718 55.653 192.718 55.9902C192.718 56.3275 192.848 56.5986 193.108 56.8037C193.367 57.0088 193.712 57.1113 194.14 57.1113ZM193.873 58.123C193.167 58.123 192.595 57.9271 192.157 57.5352C191.725 57.1432 191.508 56.6283 191.508 55.9902C191.508 55.3796 191.731 54.8919 192.178 54.5273C192.629 54.1628 193.265 53.9577 194.085 53.9121L196.122 53.7959V53.2012C196.122 52.7682 195.986 52.4287 195.712 52.1826C195.439 51.9365 195.056 51.8135 194.564 51.8135C194.113 51.8135 193.746 51.9137 193.463 52.1143C193.181 52.3102 193.001 52.5859 192.923 52.9414H191.775C191.816 52.3079 192.089 51.7884 192.595 51.3828C193.105 50.9727 193.771 50.7676 194.591 50.7676C195.425 50.7676 196.086 50.9772 196.574 51.3965C197.066 51.8158 197.312 52.3786 197.312 53.085V58H196.184V56.7764H196.157C195.942 57.182 195.628 57.5078 195.213 57.7539C194.798 58 194.352 58.123 193.873 58.123ZM199.55 60.6592C199.341 60.6592 199.17 60.6455 199.038 60.6182V59.6201C199.147 59.6429 199.302 59.6543 199.503 59.6543C199.835 59.6543 200.102 59.5654 200.302 59.3877C200.503 59.2145 200.672 58.9206 200.808 58.5059L200.972 58.0068L198.347 50.8906H199.619L201.588 56.8105H201.608L203.577 50.8906H204.828L202.032 58.499C201.727 59.3285 201.396 59.8958 201.041 60.2012C200.69 60.5065 200.193 60.6592 199.55 60.6592ZM205.911 58V50.8906H207.032V52.0254H207.06C207.233 51.638 207.495 51.3327 207.846 51.1094C208.197 50.8815 208.607 50.7676 209.076 50.7676C209.559 50.7676 209.974 50.8861 210.32 51.123C210.667 51.3555 210.917 51.6882 211.072 52.1211H211.1C211.296 51.6973 211.59 51.3669 211.981 51.1299C212.378 50.8883 212.827 50.7676 213.328 50.7676C214.03 50.7676 214.59 50.9795 215.01 51.4033C215.434 51.8226 215.646 52.3854 215.646 53.0918V58H214.456V53.3652C214.456 52.8776 214.326 52.4993 214.066 52.2305C213.811 51.957 213.449 51.8203 212.979 51.8203C212.51 51.8203 212.125 51.9775 211.824 52.292C211.523 52.6019 211.373 52.9984 211.373 53.4814V58H210.184V53.2354C210.184 52.807 210.051 52.4652 209.787 52.21C209.523 51.9502 209.17 51.8203 208.728 51.8203C208.258 51.8203 207.868 51.9844 207.559 52.3125C207.253 52.6406 207.101 53.0508 207.101 53.543V58H205.911ZM220.154 51.7998C219.602 51.7998 219.144 51.9912 218.78 52.374C218.42 52.7523 218.221 53.2399 218.185 53.8369H222.047C222.034 53.2354 221.854 52.7454 221.507 52.3672C221.161 51.9889 220.71 51.7998 220.154 51.7998ZM222.02 55.9629H223.189C223.084 56.5918 222.756 57.109 222.204 57.5146C221.658 57.9202 220.999 58.123 220.229 58.123C219.213 58.123 218.413 57.7949 217.829 57.1387C217.246 56.4824 216.954 55.5938 216.954 54.4727C216.954 53.3607 217.246 52.4652 217.829 51.7861C218.417 51.1071 219.199 50.7676 220.174 50.7676C221.131 50.7676 221.888 51.0889 222.444 51.7314C223 52.374 223.278 53.2354 223.278 54.3154V54.7666H218.178V54.835C218.178 55.5186 218.365 56.0654 218.739 56.4756C219.112 56.8857 219.618 57.0908 220.256 57.0908C220.703 57.0908 221.083 56.9883 221.398 56.7832C221.712 56.5781 221.92 56.3047 222.02 55.9629ZM224.621 58V50.8906H225.742V52.0254H225.769C225.974 51.6289 226.268 51.3213 226.651 51.1025C227.034 50.8792 227.492 50.7676 228.025 50.7676C228.8 50.7676 229.404 51.0023 229.837 51.4717C230.27 51.9365 230.486 52.5745 230.486 53.3857V58H229.297V53.5977C229.297 53.0189 229.16 52.5791 228.886 52.2783C228.613 51.973 228.205 51.8203 227.663 51.8203C227.102 51.8203 226.653 52.0026 226.316 52.3672C225.979 52.7318 225.81 53.2148 225.81 53.8164V58H224.621ZM232.526 49.1748H233.716V50.8906H235.097V51.8682H233.716V56.0928C233.716 56.4163 233.787 56.6556 233.928 56.8105C234.069 56.9609 234.292 57.0361 234.598 57.0361C234.789 57.0361 234.953 57.0247 235.09 57.002V58C234.935 58.0365 234.684 58.0547 234.338 58.0547C233.686 58.0547 233.221 57.9089 232.943 57.6172C232.665 57.3255 232.526 56.8379 232.526 56.1543V51.8682H231.467V50.8906H232.526V49.1748Z" fill="#696969"/>
<rect x="190" width="38" height="38" rx="19" fill="#F0EEEE"/>
<path d="M217.333 15.2918C217.333 15.8418 216.883 16.2918 216.333 16.2918H201.666C201.116 16.2918 200.666 15.8418 200.666 15.2918V15.2835C200.666 13.3752 202.208 11.8335 204.116 11.8335H213.874C215.783 11.8335 217.333 13.3835 217.333 15.2918Z" fill="#696969"/>
<path d="M200.666 18.5415V22.7165C200.666 24.6248 202.208 26.1665 204.116 26.1665H213.874C215.783 26.1665 217.333 24.6165 217.333 22.7082V18.5415C217.333 17.9915 216.883 17.5415 216.333 17.5415H201.666C201.116 17.5415 200.666 17.9915 200.666 18.5415ZM205.666 23.3748H203.999C203.658 23.3748 203.374 23.0915 203.374 22.7498C203.374 22.4082 203.658 22.1248 203.999 22.1248H205.666C206.008 22.1248 206.291 22.4082 206.291 22.7498C206.291 23.0915 206.008 23.3748 205.666 23.3748ZM211.083 23.3748H207.749C207.408 23.3748 207.124 23.0915 207.124 22.7498C207.124 22.4082 207.408 22.1248 207.749 22.1248H211.083C211.424 22.1248 211.708 22.4082 211.708 22.7498C211.708 23.0915 211.424 23.3748 211.083 23.3748Z" fill="#696969"/>
<line x1="38" y1="18.7" x2="193" y2="18.7" stroke="#696969" stroke-width="0.6" stroke-dasharray="4 4"/>
</svg>
